<mxfile host="app.diagrams.net" modified="2024-07-05T01:54:45.945Z" agent="Mozilla/5.0 (Windows NT 10.0; Win64; x64) AppleWebKit/537.36 (KHTML, like Gecko) Chrome/126.0.0.0 Safari/537.36 Edg/126.0.0.0" etag="dtwNjlO-zjflDb_T0bD5" version="24.6.4" type="github">
  <diagram name="Page-1" id="c4acf3e9-155e-7222-9cf6-157b1a14988f">
    <mxGraphModel dx="1913" dy="893" grid="1" gridSize="10" guides="1" tooltips="1" connect="1" arrows="1" fold="1" page="1" pageScale="1" pageWidth="850" pageHeight="1100" background="none" math="0" shadow="0">
      <root>
        <mxCell id="0" />
        <mxCell id="1" parent="0" />
        <mxCell id="17acba5748e5396b-1" value="frame" style="shape=umlFrame;whiteSpace=wrap;html=1;rounded=0;shadow=0;comic=0;labelBackgroundColor=none;strokeWidth=1;fontFamily=Verdana;fontSize=10;align=center;" parent="1" vertex="1">
          <mxGeometry x="20" y="20" width="820" height="1060" as="geometry" />
        </mxCell>
        <mxCell id="u3X7i4t5qAFWi98r7gzp-3" value="Usuario" style="swimlane;fontStyle=1;align=center;verticalAlign=top;childLayout=stackLayout;horizontal=1;startSize=26;horizontalStack=0;resizeParent=1;resizeParentMax=0;resizeLast=0;collapsible=1;marginBottom=0;whiteSpace=wrap;html=1;" vertex="1" parent="1">
          <mxGeometry x="60" y="300" width="160" height="200" as="geometry">
            <mxRectangle x="60" y="300" width="80" height="30" as="alternateBounds" />
          </mxGeometry>
        </mxCell>
        <mxCell id="u3X7i4t5qAFWi98r7gzp-4" value="+ usuarioId: tint&lt;div&gt;- nombre: String&lt;/div&gt;&lt;div&gt;- email: String&lt;/div&gt;&lt;div&gt;- passw: String&lt;/div&gt;&lt;div&gt;- ubicacion: String&lt;/div&gt;" style="text;strokeColor=none;fillColor=none;align=left;verticalAlign=top;spacingLeft=4;spacingRight=4;overflow=hidden;rotatable=0;points=[[0,0.5],[1,0.5]];portConstraint=eastwest;whiteSpace=wrap;html=1;" vertex="1" parent="u3X7i4t5qAFWi98r7gzp-3">
          <mxGeometry y="26" width="160" height="84" as="geometry" />
        </mxCell>
        <mxCell id="u3X7i4t5qAFWi98r7gzp-5" value="" style="line;strokeWidth=1;fillColor=none;align=left;verticalAlign=middle;spacingTop=-1;spacingLeft=3;spacingRight=3;rotatable=0;labelPosition=right;points=[];portConstraint=eastwest;strokeColor=inherit;" vertex="1" parent="u3X7i4t5qAFWi98r7gzp-3">
          <mxGeometry y="110" width="160" height="8" as="geometry" />
        </mxCell>
        <mxCell id="u3X7i4t5qAFWi98r7gzp-6" value="+ iniciarSesion(): void&lt;div&gt;+buscarContratista():&amp;nbsp;&lt;/div&gt;&lt;div&gt;+seleccionarContratista():&lt;/div&gt;&lt;div&gt;+contratarServicio():&lt;/div&gt;&lt;div&gt;+dejarResena():&lt;br&gt;&lt;div&gt;&lt;br&gt;&lt;/div&gt;&lt;/div&gt;" style="text;strokeColor=none;fillColor=none;align=left;verticalAlign=top;spacingLeft=4;spacingRight=4;overflow=hidden;rotatable=0;points=[[0,0.5],[1,0.5]];portConstraint=eastwest;whiteSpace=wrap;html=1;" vertex="1" parent="u3X7i4t5qAFWi98r7gzp-3">
          <mxGeometry y="118" width="160" height="82" as="geometry" />
        </mxCell>
        <mxCell id="u3X7i4t5qAFWi98r7gzp-7" value="Contratista" style="swimlane;fontStyle=1;align=center;verticalAlign=top;childLayout=stackLayout;horizontal=1;startSize=26;horizontalStack=0;resizeParent=1;resizeParentMax=0;resizeLast=0;collapsible=1;marginBottom=0;whiteSpace=wrap;html=1;" vertex="1" parent="1">
          <mxGeometry x="310" y="310" width="205" height="230" as="geometry" />
        </mxCell>
        <mxCell id="u3X7i4t5qAFWi98r7gzp-8" value="- contratistaId: int&lt;div&gt;- nombre: String&lt;/div&gt;&lt;div&gt;- foto: String&lt;/div&gt;&lt;div&gt;- email: String&lt;/div&gt;&lt;div&gt;- passw: String&lt;/div&gt;&lt;div&gt;- descripcionServicos: String&lt;/div&gt;&lt;div&gt;&lt;span style=&quot;background-color: initial;&quot;&gt;- tarifaporHora: double&lt;/span&gt;&lt;/div&gt;&lt;div&gt;&lt;span style=&quot;background-color: initial;&quot;&gt;- disponibilidad: String&lt;/span&gt;&lt;/div&gt;" style="text;strokeColor=none;fillColor=none;align=left;verticalAlign=top;spacingLeft=4;spacingRight=4;overflow=hidden;rotatable=0;points=[[0,0.5],[1,0.5]];portConstraint=eastwest;whiteSpace=wrap;html=1;" vertex="1" parent="u3X7i4t5qAFWi98r7gzp-7">
          <mxGeometry y="26" width="205" height="134" as="geometry" />
        </mxCell>
        <mxCell id="u3X7i4t5qAFWi98r7gzp-9" value="" style="line;strokeWidth=1;fillColor=none;align=left;verticalAlign=middle;spacingTop=-1;spacingLeft=3;spacingRight=3;rotatable=0;labelPosition=right;points=[];portConstraint=eastwest;strokeColor=inherit;" vertex="1" parent="u3X7i4t5qAFWi98r7gzp-7">
          <mxGeometry y="160" width="205" height="8" as="geometry" />
        </mxCell>
        <mxCell id="u3X7i4t5qAFWi98r7gzp-10" value="&lt;div&gt;+ actualizarPerfil():&lt;/div&gt;&lt;div&gt;+ gestionarDisponibilidad():&lt;/div&gt;&lt;div&gt;+ recibirPago():&lt;/div&gt;&lt;div&gt;&lt;br&gt;&lt;/div&gt;" style="text;strokeColor=none;fillColor=none;align=left;verticalAlign=top;spacingLeft=4;spacingRight=4;overflow=hidden;rotatable=0;points=[[0,0.5],[1,0.5]];portConstraint=eastwest;whiteSpace=wrap;html=1;" vertex="1" parent="u3X7i4t5qAFWi98r7gzp-7">
          <mxGeometry y="168" width="205" height="62" as="geometry" />
        </mxCell>
        <mxCell id="u3X7i4t5qAFWi98r7gzp-11" value="Servicio" style="swimlane;fontStyle=1;align=center;verticalAlign=top;childLayout=stackLayout;horizontal=1;startSize=26;horizontalStack=0;resizeParent=1;resizeParentMax=0;resizeLast=0;collapsible=1;marginBottom=0;whiteSpace=wrap;html=1;" vertex="1" parent="1">
          <mxGeometry x="580" y="330" width="205" height="160" as="geometry" />
        </mxCell>
        <mxCell id="u3X7i4t5qAFWi98r7gzp-12" value="- id: int&lt;div&gt;- nombre: String&lt;/div&gt;&lt;div&gt;- descripcion: String&lt;/div&gt;&lt;div&gt;&lt;span style=&quot;background-color: initial;&quot;&gt;- tarifaporHora: double&lt;/span&gt;&lt;/div&gt;&lt;div&gt;&lt;span style=&quot;background-color: initial;&quot;&gt;- fecha: Date&lt;/span&gt;&lt;/div&gt;" style="text;strokeColor=none;fillColor=none;align=left;verticalAlign=top;spacingLeft=4;spacingRight=4;overflow=hidden;rotatable=0;points=[[0,0.5],[1,0.5]];portConstraint=eastwest;whiteSpace=wrap;html=1;" vertex="1" parent="u3X7i4t5qAFWi98r7gzp-11">
          <mxGeometry y="26" width="205" height="84" as="geometry" />
        </mxCell>
        <mxCell id="u3X7i4t5qAFWi98r7gzp-13" value="" style="line;strokeWidth=1;fillColor=none;align=left;verticalAlign=middle;spacingTop=-1;spacingLeft=3;spacingRight=3;rotatable=0;labelPosition=right;points=[];portConstraint=eastwest;strokeColor=inherit;" vertex="1" parent="u3X7i4t5qAFWi98r7gzp-11">
          <mxGeometry y="110" width="205" height="8" as="geometry" />
        </mxCell>
        <mxCell id="u3X7i4t5qAFWi98r7gzp-14" value="&lt;div&gt;+ programarServicio():&lt;/div&gt;&lt;div&gt;+ confirmarServicio():&lt;/div&gt;" style="text;strokeColor=none;fillColor=none;align=left;verticalAlign=top;spacingLeft=4;spacingRight=4;overflow=hidden;rotatable=0;points=[[0,0.5],[1,0.5]];portConstraint=eastwest;whiteSpace=wrap;html=1;" vertex="1" parent="u3X7i4t5qAFWi98r7gzp-11">
          <mxGeometry y="118" width="205" height="42" as="geometry" />
        </mxCell>
        <mxCell id="u3X7i4t5qAFWi98r7gzp-15" value="Resena" style="swimlane;fontStyle=1;align=center;verticalAlign=top;childLayout=stackLayout;horizontal=1;startSize=26;horizontalStack=0;resizeParent=1;resizeParentMax=0;resizeLast=0;collapsible=1;marginBottom=0;whiteSpace=wrap;html=1;" vertex="1" parent="1">
          <mxGeometry x="37.5" y="620" width="205" height="160" as="geometry" />
        </mxCell>
        <mxCell id="u3X7i4t5qAFWi98r7gzp-16" value="- idResena: int&lt;div&gt;- usuarioId: int&lt;/div&gt;&lt;div&gt;- contratistaId: int&lt;/div&gt;&lt;div&gt;- calificacion: int&lt;/div&gt;&lt;div&gt;- comentario: String&lt;/div&gt;" style="text;strokeColor=none;fillColor=none;align=left;verticalAlign=top;spacingLeft=4;spacingRight=4;overflow=hidden;rotatable=0;points=[[0,0.5],[1,0.5]];portConstraint=eastwest;whiteSpace=wrap;html=1;" vertex="1" parent="u3X7i4t5qAFWi98r7gzp-15">
          <mxGeometry y="26" width="205" height="84" as="geometry" />
        </mxCell>
        <mxCell id="u3X7i4t5qAFWi98r7gzp-17" value="" style="line;strokeWidth=1;fillColor=none;align=left;verticalAlign=middle;spacingTop=-1;spacingLeft=3;spacingRight=3;rotatable=0;labelPosition=right;points=[];portConstraint=eastwest;strokeColor=inherit;" vertex="1" parent="u3X7i4t5qAFWi98r7gzp-15">
          <mxGeometry y="110" width="205" height="8" as="geometry" />
        </mxCell>
        <mxCell id="u3X7i4t5qAFWi98r7gzp-18" value="&lt;div&gt;&lt;span style=&quot;background-color: initial;&quot;&gt;+ agregarResena(): void&lt;/span&gt;&lt;/div&gt;&lt;div&gt;&lt;span style=&quot;background-color: initial;&quot;&gt;+ mostrarResena(): list&amp;lt;resena&amp;gt;&lt;/span&gt;&lt;/div&gt;" style="text;strokeColor=none;fillColor=none;align=left;verticalAlign=top;spacingLeft=4;spacingRight=4;overflow=hidden;rotatable=0;points=[[0,0.5],[1,0.5]];portConstraint=eastwest;whiteSpace=wrap;html=1;" vertex="1" parent="u3X7i4t5qAFWi98r7gzp-15">
          <mxGeometry y="118" width="205" height="42" as="geometry" />
        </mxCell>
        <mxCell id="u3X7i4t5qAFWi98r7gzp-19" value="Pago" style="swimlane;fontStyle=1;align=center;verticalAlign=top;childLayout=stackLayout;horizontal=1;startSize=26;horizontalStack=0;resizeParent=1;resizeParentMax=0;resizeLast=0;collapsible=1;marginBottom=0;whiteSpace=wrap;html=1;" vertex="1" parent="1">
          <mxGeometry x="322" y="620" width="205" height="190" as="geometry" />
        </mxCell>
        <mxCell id="u3X7i4t5qAFWi98r7gzp-20" value="&lt;div&gt;- idPago: int&lt;/div&gt;&lt;div&gt;- usuarioId: int&lt;/div&gt;&lt;div&gt;- contratistaId: int&lt;/div&gt;&lt;div&gt;- servicioId: int&lt;/div&gt;&lt;div&gt;- monto: double&lt;/div&gt;&lt;div&gt;- fechaPago: Date&lt;/div&gt;" style="text;strokeColor=none;fillColor=none;align=left;verticalAlign=top;spacingLeft=4;spacingRight=4;overflow=hidden;rotatable=0;points=[[0,0.5],[1,0.5]];portConstraint=eastwest;whiteSpace=wrap;html=1;" vertex="1" parent="u3X7i4t5qAFWi98r7gzp-19">
          <mxGeometry y="26" width="205" height="114" as="geometry" />
        </mxCell>
        <mxCell id="u3X7i4t5qAFWi98r7gzp-21" value="" style="line;strokeWidth=1;fillColor=none;align=left;verticalAlign=middle;spacingTop=-1;spacingLeft=3;spacingRight=3;rotatable=0;labelPosition=right;points=[];portConstraint=eastwest;strokeColor=inherit;" vertex="1" parent="u3X7i4t5qAFWi98r7gzp-19">
          <mxGeometry y="140" width="205" height="8" as="geometry" />
        </mxCell>
        <mxCell id="u3X7i4t5qAFWi98r7gzp-22" value="&lt;div&gt;&lt;span style=&quot;background-color: initial;&quot;&gt;+ procesarPago(): void&lt;/span&gt;&lt;/div&gt;&lt;div&gt;&lt;span style=&quot;background-color: initial;&quot;&gt;+ confirmarPago(): void&lt;/span&gt;&lt;/div&gt;" style="text;strokeColor=none;fillColor=none;align=left;verticalAlign=top;spacingLeft=4;spacingRight=4;overflow=hidden;rotatable=0;points=[[0,0.5],[1,0.5]];portConstraint=eastwest;whiteSpace=wrap;html=1;" vertex="1" parent="u3X7i4t5qAFWi98r7gzp-19">
          <mxGeometry y="148" width="205" height="42" as="geometry" />
        </mxCell>
        <mxCell id="u3X7i4t5qAFWi98r7gzp-23" value="" style="line;strokeWidth=1;fillColor=none;align=left;verticalAlign=middle;spacingTop=-1;spacingLeft=3;spacingRight=3;rotatable=0;labelPosition=right;points=[];portConstraint=eastwest;strokeColor=inherit;" vertex="1" parent="1">
          <mxGeometry x="340" y="730" width="40" height="8" as="geometry" />
        </mxCell>
        <mxCell id="u3X7i4t5qAFWi98r7gzp-24" value="" style="line;strokeWidth=1;fillColor=none;align=left;verticalAlign=middle;spacingTop=-1;spacingLeft=3;spacingRight=3;rotatable=0;labelPosition=right;points=[];portConstraint=eastwest;strokeColor=inherit;" vertex="1" parent="1">
          <mxGeometry x="340" y="730" width="40" height="8" as="geometry" />
        </mxCell>
      </root>
    </mxGraphModel>
  </diagram>
</mxfile>
